<?xml version="1.0" standalone="no"?>
<!DOCTYPE svg PUBLIC "-//W3C//DTD SVG 20010904//EN"
 "http://www.w3.org/TR/2001/REC-SVG-20010904/DTD/svg10.dtd">
<svg version="1.0" xmlns="http://www.w3.org/2000/svg"
 width="1280.000000pt" height="1280.000000pt" viewBox="0 0 1280.000000 1280.000000"
 preserveAspectRatio="xMidYMid meet">

<g transform="translate(0.000000,1280.000000) scale(0.100000,-0.100000)"
fill="#000000" stroke="none">
<path d="M8220 10980 c-389 -49 -818 -228 -1275 -533 -132 -88 -333 -239 -435
-325 -113 -97 -338 -323 -423 -426 -264 -318 -454 -697 -593 -1180 -18 -65
-37 -122 -40 -125 -13 -12 6 206 26 304 27 132 89 312 158 460 53 113 190 347
249 425 20 28 17 25 -18 -10 -168 -174 -424 -493 -566 -705 -192 -288 -302
-527 -374 -811 -62 -245 -74 -351 -74 -651 0 -144 -3 -256 -6 -250 -12 22 -48
192 -60 282 -17 135 -6 444 21 570 22 101 82 299 105 345 43 87 12 54 -77 -81
-229 -346 -363 -678 -398 -984 -15 -132 -12 -358 6 -487 8 -62 34 -185 57
-273 30 -118 41 -180 42 -237 0 -128 -12 -120 -110 77 -133 269 -195 557 -182
852 3 69 4 123 2 121 -10 -11 -56 -275 -66 -381 -15 -162 -7 -480 16 -602 24
-135 79 -288 143 -400 31 -55 64 -116 74 -137 22 -45 35 -143 20 -152 -12 -7
-94 93 -151 187 -112 184 -233 478 -276 671 -3 15 -8 26 -11 23 -10 -10 58
-493 88 -617 66 -281 142 -488 308 -840 110 -233 109 -233 -107 -15 -306 310
-457 531 -535 783 -11 35 -22 62 -24 59 -10 -10 49 -265 82 -356 102 -273 247
-458 539 -686 55 -43 99 -83 99 -89 -1 -6 -27 -99 -57 -206 -116 -408 -247
-930 -247 -982 0 -19 -29 -38 -59 -38 -29 0 -81 -48 -102 -95 -26 -56 -24
-113 5 -168 l24 -45 -21 -6 c-23 -5 -44 -39 -76 -123 -47 -122 -121 -261 -153
-288 -18 -16 -62 -42 -98 -58 -80 -37 -78 -36 -60 -50 57 -44 107 -157 150
-342 23 -97 75 -379 91 -493 7 -53 16 -82 23 -79 6 2 33 37 61 78 195 290 383
540 443 588 48 37 88 54 114 45 15 -4 11 7 -20 58 -62 101 -64 115 -63 364 1
190 -2 226 -14 230 -23 9 -18 18 28 51 24 16 51 46 60 65 23 49 22 126 -3 158
-11 14 -20 33 -20 43 0 10 25 77 56 149 30 71 80 193 110 271 86 220 283 696
296 713 5 7 21 15 36 19 15 4 234 10 487 14 452 6 459 6 405 23 -93 29 -251
66 -335 79 -97 15 -321 15 -429 0 -44 -6 -81 -9 -84 -7 -10 10 118 82 208 117
52 21 214 72 360 114 289 83 546 167 679 222 110 44 379 178 411 204 22 18 22
19 3 10 -84 -42 -468 -131 -653 -152 -108 -12 -489 -8 -523 6 -65 27 72 83
415 170 346 87 486 134 666 220 222 107 361 206 556 395 115 111 301 309 376
400 l45 55 -62 -56 c-149 -137 -437 -304 -668 -389 -77 -29 -221 -67 -315 -85
-106 -20 -342 -30 -435 -20 l-70 8 173 23 c184 24 264 40 407 80 298 84 593
237 840 437 157 127 397 376 570 592 22 27 48 59 57 70 21 25 80 102 210 275
84 111 201 260 290 365 9 11 33 40 53 65 20 25 88 100 151 167 63 67 114 124
114 128 0 4 -17 -7 -37 -23 -170 -133 -459 -277 -758 -377 -209 -69 -336 -99
-555 -130 -68 -9 -40 6 60 31 325 85 947 390 1295 637 115 81 343 304 427 417
152 206 266 460 324 723 31 140 43 409 25 538 -38 265 -138 475 -310 653 -165
170 -371 276 -626 321 -109 19 -382 27 -485 15z m-130 -1337 c-118 -104 -494
-486 -611 -618 -299 -341 -603 -729 -897 -1145 -72 -102 -160 -225 -195 -275
-251 -355 -691 -1092 -889 -1487 -166 -333 -375 -788 -513 -1118 -29 -69 -72
-168 -95 -220 -23 -52 -102 -243 -175 -425 -173 -430 -324 -798 -329 -803 -2
-2 -14 2 -26 8 -18 9 -25 9 -36 -2 -16 -16 -94 -298 -158 -573 -111 -475 -180
-737 -206 -784 -13 -24 -23 128 -17 257 4 104 13 147 76 387 39 149 109 403
156 565 46 162 127 466 179 675 230 918 283 1109 366 1300 104 238 290 591
487 925 272 459 1004 1469 1327 1830 23 25 54 61 70 80 219 259 788 843 1051
1079 152 136 490 411 504 411 3 0 -28 -31 -69 -67z m-1997 -3994 c-26 -26
-149 -51 -263 -54 -63 -1 -94 0 -67 2 61 5 61 23 0 23 -94 0 -27 15 115 26
209 16 228 16 215 3z"/>
<path d="M5543 6728 c-425 -628 -759 -1312 -912 -1874 -43 -156 -49 -199 -11
-87 33 101 165 453 216 575 158 385 556 1136 791 1495 8 13 13 23 10 23 -2 0
-45 -60 -94 -132z"/>
</g>
</svg>
